<svg width="14" height="14" viewBox="0 0 14 14" xmlns="http://www.w3.org/2000/svg">
<path d="M9.99967 7.80111L7.66634 9.35644V11.7538L11.7977 8.99977L9.99967 7.80111ZM8.79767 6.99977L6.99967 5.80111L5.20167 6.99977L6.99967 8.19844L8.79767 6.99977ZM12.333 6.24511L11.2017 6.99977L12.333 7.75444V6.24511ZM11.7977 4.99977L7.66634 2.24577V4.64311L9.99967 6.19844L11.7977 4.99977ZM3.99967 6.19844L6.33301 4.64311V2.24577L2.20167 4.99977L3.99967 6.19844ZM2.20167 8.99977L6.33301 11.7538V9.35644L3.99967 7.80111L2.20167 8.99977ZM1.66634 7.75444L2.79767 6.99977L1.66634 6.24511V7.75444ZM0.333008 4.99977C0.332991 4.89005 0.36006 4.78201 0.411811 4.68525C0.463563 4.58849 0.538397 4.50601 0.629674 4.44511L6.62967 0.445108C6.73923 0.372015 6.86798 0.333008 6.99967 0.333008C7.13137 0.333008 7.26012 0.372015 7.36967 0.445108L13.3697 4.44511C13.461 4.50601 13.5358 4.58849 13.5875 4.68525C13.6393 4.78201 13.6664 4.89005 13.6663 4.99977V8.99977C13.6664 9.1095 13.6393 9.21754 13.5875 9.3143C13.5358 9.41105 13.461 9.49354 13.3697 9.55444L7.36967 13.5544C7.26012 13.6275 7.13137 13.6665 6.99967 13.6665C6.86798 13.6665 6.73923 13.6275 6.62967 13.5544L0.629674 9.55444C0.538397 9.49354 0.463563 9.41105 0.411811 9.3143C0.36006 9.21754 0.332991 9.1095 0.333008 8.99977V4.99977Z"/>
</svg>
