<svg viewBox="0 0 14 14" xmlns="http://www.w3.org/2000/svg">
<path d="M13.4419 5.65812L13.4232 5.61012L11.6106 0.880787C11.5739 0.787482 11.5086 0.708221 11.424 0.654426C11.3394 0.600631 11.2399 0.57508 11.1399 0.581454C11.0398 0.58591 10.9436 0.621995 10.8653 0.684522C10.7869 0.747049 10.7304 0.8328 10.7039 0.929454L9.4799 4.68012H4.52123L3.29523 0.93012C3.269 0.833427 3.2128 0.747534 3.1347 0.684771C3.05661 0.622009 2.96064 0.585605 2.86056 0.580787C2.76052 0.575344 2.66128 0.601345 2.57675 0.655144C2.49223 0.708944 2.42666 0.787845 2.38923 0.880787L0.574565 5.61679L0.555898 5.66345C0.295373 6.34554 0.263327 7.09377 0.464582 7.79564C0.665836 8.49751 1.08951 9.11506 1.6719 9.55545L1.67857 9.56012L1.69456 9.57279L4.45923 11.6421L5.8259 12.6775L6.65723 13.3068C6.75477 13.3804 6.87367 13.4203 6.9959 13.4203C7.11813 13.4203 7.23702 13.3804 7.33457 13.3068L8.1659 12.6775L9.53257 11.6421L12.3139 9.56012L12.3206 9.55479C12.905 9.11497 13.3306 8.49692 13.5328 7.79397C13.7351 7.09102 13.7032 6.34133 13.4419 5.65812Z"/>
</svg>
