<svg width="14" height="12" viewBox="0 0 14 12" xmlns="http://www.w3.org/2000/svg">
<path d="M7.16234 0.666504C7.51834 0.668504 8.40901 0.677171 9.35567 0.715171L9.69168 0.729837C10.6443 0.774504 11.5963 0.851837 12.069 0.983171C12.699 1.1605 13.1937 1.6765 13.361 2.33117C13.6277 3.37117 13.661 5.39917 13.665 5.8905L13.6657 5.99184V6.10784C13.661 6.59917 13.6277 8.62784 13.361 9.66717C13.1917 10.3238 12.6963 10.8405 12.069 11.0152C11.5963 11.1465 10.6443 11.2238 9.69168 11.2685L9.35567 11.2838C8.40901 11.3212 7.51834 11.3305 7.16234 11.3318L7.00567 11.3325H6.83567C6.08234 11.3278 2.93167 11.2938 1.92901 11.0152C1.29967 10.8378 0.804341 10.3218 0.637008 9.66717C0.370341 8.62717 0.337008 6.59917 0.333008 6.10784V5.8905C0.337008 5.39917 0.370341 3.3705 0.637008 2.33117C0.806341 1.6745 1.30167 1.15784 1.92967 0.983837C2.93167 0.704504 6.08301 0.670504 6.83634 0.666504H7.16234ZM5.66567 3.6665V8.33317L9.66567 5.99984L5.66567 3.6665Z"/>
</svg>
